# Blender v2.78 (sub 0) OBJ File: ''
# www.blender.org
v 0.000000 -0.500000 -0.500000
v 0.000000 0.500000 -0.500000
v 0.097545 -0.500000 -0.490393
v 0.097545 0.500000 -0.490393
v 0.191342 -0.500000 -0.461940
v 0.191342 0.500000 -0.461940
v 0.277785 -0.500000 -0.415735
v 0.277785 0.500000 -0.415735
v 0.353553 -0.500000 -0.353553
v 0.353553 0.500000 -0.353553
v 0.415735 -0.500000 -0.277785
v 0.415735 0.500000 -0.277785
v 0.461940 -0.500000 -0.191342
v 0.461940 0.500000 -0.191342
v 0.490393 -0.500000 -0.097545
v 0.490393 0.500000 -0.097545
v 0.500000 -0.500000 -0.000000
v 0.500000 0.500000 -0.000000
v 0.490393 -0.500000 0.097545
v 0.490393 0.500000 0.097545
v 0.461940 -0.500000 0.191342
v 0.461940 0.500000 0.191342
v 0.415735 -0.500000 0.277785
v 0.415735 0.500000 0.277785
v 0.353553 -0.500000 0.353553
v 0.353553 0.500000 0.353553
v 0.277785 -0.500000 0.415735
v 0.277785 0.500000 0.415735
v 0.191342 -0.500000 0.461940
v 0.191342 0.500000 0.461940
v 0.097545 -0.500000 0.490393
v 0.097545 0.500000 0.490393
v -0.000000 -0.500000 0.500000
v -0.000000 0.500000 0.500000
v -0.097545 -0.500000 0.490393
v -0.097545 0.500000 0.490393
v -0.191342 -0.500000 0.461940
v -0.191342 0.500000 0.461940
v -0.277785 -0.500000 0.415735
v -0.277785 0.500000 0.415735
v -0.353554 -0.500000 0.353553
v -0.353554 0.500000 0.353553
v -0.415735 -0.500000 0.277785
v -0.415735 0.500000 0.277785
v -0.461940 -0.500000 0.191341
v -0.461940 0.500000 0.191341
v -0.490393 -0.500000 0.097545
v -0.490393 0.500000 0.097545
v -0.500000 -0.500000 -0.000000
v -0.500000 0.500000 -0.000000
v -0.490393 -0.500000 -0.097546
v -0.490393 0.500000 -0.097546
v -0.461940 -0.500000 -0.191342
v -0.461940 0.500000 -0.191342
v -0.415734 -0.500000 -0.277786
v -0.415734 0.500000 -0.277786
v -0.353553 -0.500000 -0.353554
v -0.353553 0.500000 -0.353554
v -0.277785 -0.500000 -0.415735
v -0.277785 0.500000 -0.415735
v -0.191341 -0.500000 -0.461940
v -0.191341 0.500000 -0.461940
v -0.097544 -0.500000 -0.490393
v -0.097544 0.500000 -0.490393
v 0.000000 -0.500000 -0.500000
v 0.097545 -0.500000 -0.490393
v 0.097545 0.500000 -0.490393
v 0.000000 0.500000 -0.500000
v 0.191342 -0.500000 -0.461940
v 0.191342 0.500000 -0.461940
v 0.277785 -0.500000 -0.415735
v 0.277785 0.500000 -0.415735
v 0.353553 -0.500000 -0.353553
v 0.353553 0.500000 -0.353553
v 0.415735 -0.500000 -0.277785
v 0.415735 0.500000 -0.277785
v 0.461940 -0.500000 -0.191342
v 0.461940 0.500000 -0.191342
v 0.490393 -0.500000 -0.097545
v 0.490393 0.500000 -0.097545
v 0.500000 -0.500000 -0.000000
v 0.500000 0.500000 -0.000000
v 0.490393 -0.500000 0.097545
v 0.490393 0.500000 0.097545
v 0.461940 -0.500000 0.191342
v 0.461940 0.500000 0.191342
v 0.415735 -0.500000 0.277785
v 0.415735 0.500000 0.277785
v 0.353553 -0.500000 0.353553
v 0.353553 0.500000 0.353553
v 0.277785 -0.500000 0.415735
v 0.277785 0.500000 0.415735
v 0.191342 -0.500000 0.461940
v 0.191342 0.500000 0.461940
v 0.097545 -0.500000 0.490393
v 0.097545 0.500000 0.490393
v -0.000000 -0.500000 0.500000
v -0.000000 0.500000 0.500000
v -0.097545 -0.500000 0.490393
v -0.097545 0.500000 0.490393
v -0.191342 -0.500000 0.461940
v -0.191342 0.500000 0.461940
v -0.277785 -0.500000 0.415735
v -0.277785 0.500000 0.415735
v -0.353554 -0.500000 0.353553
v -0.353554 0.500000 0.353553
v -0.415735 -0.500000 0.277785
v -0.415735 0.500000 0.277785
v -0.461940 -0.500000 0.191341
v -0.461940 0.500000 0.191341
v -0.490393 -0.500000 0.097545
v -0.490393 0.500000 0.097545
v -0.500000 -0.500000 -0.000000
v -0.500000 0.500000 -0.000000
v -0.490393 -0.500000 -0.097546
v -0.490393 0.500000 -0.097546
v -0.461940 -0.500000 -0.191342
v -0.461940 0.500000 -0.191342
v -0.415734 -0.500000 -0.277786
v -0.415734 0.500000 -0.277786
v -0.353553 -0.500000 -0.353554
v -0.353553 0.500000 -0.353554
v -0.277785 -0.500000 -0.415735
v -0.277785 0.500000 -0.415735
v -0.191341 -0.500000 -0.461940
v -0.191341 0.500000 -0.461940
v -0.097544 -0.500000 -0.490393
v -0.097544 0.500000 -0.490393
vt 0.5000 1.0000
vt 0.5975 0.0000
vt 0.5000 0.0000
vt 0.5975 1.0000
vt 0.6913 0.0000
vt 0.6913 1.0000
vt 0.7778 0.0000
vt 0.7778 1.0000
vt 0.8536 0.0000
vt 0.8536 1.0000
vt 0.7778 0.0000
vt 0.7778 1.0000
vt 0.6913 0.0000
vt 0.6913 1.0000
vt 0.5975 0.0000
vt 0.5975 1.0000
vt 0.5000 0.0000
vt 0.5000 1.0000
vt 0.4025 0.0000
vt 0.4025 1.0000
vt 0.3087 0.0000
vt 0.3087 1.0000
vt 0.2222 0.0000
vt 0.2222 1.0000
vt 0.1464 0.0000
vt 0.8536 1.0000
vt 0.7778 0.0000
vt 0.8536 0.0000
vt 0.7778 1.0000
vt 0.6913 0.0000
vt 0.6913 1.0000
vt 0.5975 0.0000
vt 0.5975 1.0000
vt 0.5000 0.0000
vt 0.5000 1.0000
vt 0.4025 0.0000
vt 0.4025 1.0000
vt 0.3087 0.0000
vt 0.3087 1.0000
vt 0.2222 0.0000
vt 0.2222 1.0000
vt 0.1464 0.0000
vt 0.1464 1.0000
vt 0.2222 0.0000
vt 0.2222 1.0000
vt 0.3087 0.0000
vt 0.3087 1.0000
vt 0.4025 0.0000
vt 0.4025 1.0000
vt 0.5000 0.0000
vt 0.5000 1.0000
vt 0.5975 0.0000
vt 0.5975 1.0000
vt 0.6913 0.0000
vt 0.6913 1.0000
vt 0.7778 0.0000
vt 0.7778 1.0000
vt 0.8536 0.0000
vt 0.1464 1.0000
vt 0.2222 0.0000
vt 0.1464 0.0000
vt 0.2222 1.0000
vt 0.3087 0.0000
vt 0.6913 0.0381
vt 0.9619 0.3087
vt 0.6913 0.9619
vt 0.3087 1.0000
vt 0.4025 0.0000
vt 0.4025 1.0000
vt 0.5975 -0.9904
vt 0.0096 -0.5975
vt 0.9904 -0.4025
vt 0.1464 1.0000
vt 0.8536 1.0000
vt 0.5975 0.9904
vt 0.5000 1.0000
vt 0.4025 0.9904
vt 0.3087 0.9619
vt 0.2222 0.9157
vt 0.1464 0.8536
vt 0.0843 0.7778
vt 0.0381 0.6913
vt 0.0096 0.5975
vt 0.0000 0.5000
vt 0.0096 0.4025
vt 0.0381 0.3087
vt 0.0843 0.2222
vt 0.3087 0.0381
vt 0.1464 0.1464
vt 0.2222 0.0843
vt 0.4025 0.0096
vt 0.5000 0.0000
vt 0.5975 0.0096
vt 0.7778 0.0843
vt 0.8536 0.1464
vt 0.9157 0.2222
vt 0.9904 0.4025
vt 1.0000 0.5000
vt 0.9904 0.5975
vt 0.9619 0.6913
vt 0.9157 0.7778
vt 0.8536 0.8536
vt 0.7778 0.9157
vt 0.4025 -0.0096
vt 0.5000 0.0000
vt 0.5975 -0.0096
vt 0.6913 -0.0381
vt 0.7778 -0.0843
vt 0.8536 -0.1464
vt 0.9157 -0.2222
vt 0.9619 -0.3087
vt 1.0000 -0.5000
vt 0.9904 -0.5975
vt 0.9619 -0.6913
vt 0.9157 -0.7778
vt 0.8536 -0.8536
vt 0.7778 -0.9157
vt 0.6913 -0.9619
vt 0.5000 -1.0000
vt 0.4025 -0.9904
vt 0.3087 -0.9619
vt 0.2222 -0.9157
vt 0.1464 -0.8536
vt 0.0843 -0.7778
vt 0.0381 -0.6913
vt 0.0000 -0.5000
vt 0.0096 -0.4025
vt 0.0381 -0.3087
vt 0.0843 -0.2222
vt 0.1464 -0.1464
vt 0.2222 -0.0843
vt 0.3087 -0.0381
vn 0.0000 0.0000 -1.0000
vn 0.1951 0.0000 -0.9808
vn 0.3827 0.0000 -0.9239
vn 0.5556 0.0000 -0.8314
vn 0.7071 0.0000 -0.7071
vn 0.8314 0.0000 -0.5556
vn 0.9239 0.0000 -0.3827
vn 0.9808 0.0000 -0.1951
vn 1.0000 0.0000 0.0000
vn 0.9808 0.0000 0.1951
vn 0.9239 0.0000 0.3827
vn 0.8314 0.0000 0.5556
vn 0.7071 0.0000 0.7071
vn 0.5556 0.0000 0.8314
vn 0.3827 0.0000 0.9239
vn 0.1951 0.0000 0.9808
vn 0.0000 0.0000 1.0000
vn -0.1951 0.0000 0.9808
vn -0.3827 0.0000 0.9239
vn -0.5556 0.0000 0.8314
vn -0.7071 0.0000 0.7071
vn -0.8314 0.0000 0.5556
vn -0.9239 0.0000 0.3827
vn -0.9808 0.0000 0.1951
vn -1.0000 0.0000 0.0000
vn -0.9808 0.0000 -0.1951
vn -0.9239 0.0000 -0.3827
vn -0.8314 0.0000 -0.5556
vn -0.7071 0.0000 -0.7071
vn -0.5556 0.0000 -0.8314
vn -0.3827 0.0000 -0.9239
vn 0.0000 1.0000 0.0000
vn -0.1951 0.0000 -0.9808
vn 0.0000 -1.0000 0.0000
s 1
f 68/1/1 66/2/2 65/3/1
f 67/4/2 69/5/3 66/2/2
f 70/6/3 71/7/4 69/5/3
f 72/8/4 73/9/5 71/7/4
f 74/10/5 75/11/6 73/9/5
f 76/12/6 77/13/7 75/11/6
f 78/14/7 79/15/8 77/13/7
f 80/16/8 81/17/9 79/15/8
f 82/18/9 83/19/10 81/17/9
f 84/20/10 85/21/11 83/19/10
f 86/22/11 87/23/12 85/21/11
f 88/24/12 89/25/13 87/23/12
f 90/26/13 91/27/14 89/28/13
f 92/29/14 93/30/15 91/27/14
f 94/31/15 95/32/16 93/30/15
f 96/33/16 97/34/17 95/32/16
f 98/35/17 99/36/18 97/34/17
f 100/37/18 101/38/19 99/36/18
f 102/39/19 103/40/20 101/38/19
f 104/41/20 105/42/21 103/40/20
f 106/43/21 107/44/22 105/42/21
f 108/45/22 109/46/23 107/44/22
f 110/47/23 111/48/24 109/46/23
f 112/49/24 113/50/25 111/48/24
f 114/51/25 115/52/26 113/50/25
f 116/53/26 117/54/27 115/52/26
f 118/55/27 119/56/28 117/54/27
f 120/57/28 121/58/29 119/56/28
f 122/59/29 123/60/30 121/61/29
f 124/62/30 125/63/31 123/60/30
f 30/64/32 22/65/32 6/66/32
f 126/67/31 127/68/33 125/63/31
f 64/69/33 65/3/1 127/68/33
f 31/70/34 47/71/34 15/72/34
f 68/1/1 67/4/2 66/2/2
f 67/4/2 70/6/3 69/5/3
f 70/6/3 72/8/4 71/7/4
f 72/8/4 74/10/5 73/9/5
f 74/10/5 76/12/6 75/11/6
f 76/12/6 78/14/7 77/13/7
f 78/14/7 80/16/8 79/15/8
f 80/16/8 82/18/9 81/17/9
f 82/18/9 84/20/10 83/19/10
f 84/20/10 86/22/11 85/21/11
f 86/22/11 88/24/12 87/23/12
f 88/24/12 90/73/13 89/25/13
f 90/26/13 92/29/14 91/27/14
f 92/29/14 94/31/15 93/30/15
f 94/31/15 96/33/16 95/32/16
f 96/33/16 98/35/17 97/34/17
f 98/35/17 100/37/18 99/36/18
f 100/37/18 102/39/19 101/38/19
f 102/39/19 104/41/20 103/40/20
f 104/41/20 106/43/21 105/42/21
f 106/43/21 108/45/22 107/44/22
f 108/45/22 110/47/23 109/46/23
f 110/47/23 112/49/24 111/48/24
f 112/49/24 114/51/25 113/50/25
f 114/51/25 116/53/26 115/52/26
f 116/53/26 118/55/27 117/54/27
f 118/55/27 120/57/28 119/56/28
f 120/57/28 122/74/29 121/58/29
f 122/59/29 124/62/30 123/60/30
f 124/62/30 126/67/31 125/63/31
f 6/66/32 4/75/32 2/76/32
f 2/76/32 128/77/32 6/66/32
f 62/78/32 60/79/32 58/80/32
f 58/80/32 56/81/32 54/82/32
f 54/82/32 52/83/32 50/84/32
f 50/84/32 48/85/32 54/82/32
f 46/86/32 44/87/32 38/88/32
f 42/89/32 40/90/32 38/88/32
f 38/88/32 36/91/32 34/92/32
f 34/92/32 32/93/32 38/88/32
f 30/64/32 28/94/32 26/95/32
f 26/95/32 24/96/32 22/65/32
f 22/65/32 20/97/32 18/98/32
f 18/98/32 16/99/32 14/100/32
f 14/100/32 12/101/32 10/102/32
f 10/102/32 8/103/32 6/66/32
f 6/66/32 128/77/32 62/78/32
f 62/78/32 58/80/32 6/66/32
f 54/82/32 48/85/32 46/86/32
f 44/87/32 42/89/32 38/88/32
f 38/88/32 32/93/32 30/64/32
f 30/64/32 26/95/32 22/65/32
f 22/65/32 18/98/32 14/100/32
f 14/100/32 10/102/32 22/65/32
f 6/66/32 58/80/32 54/82/32
f 54/82/32 46/86/32 38/88/32
f 38/88/32 30/64/32 6/66/32
f 22/65/32 10/102/32 6/66/32
f 6/66/32 54/82/32 38/88/32
f 126/67/31 64/69/33 127/68/33
f 64/69/33 68/1/1 65/3/1
f 63/104/34 1/105/34 3/106/34
f 3/106/34 5/107/34 7/108/34
f 7/108/34 9/109/34 11/110/34
f 11/110/34 13/111/34 7/108/34
f 15/72/34 17/112/34 19/113/34
f 19/113/34 21/114/34 15/72/34
f 23/115/34 25/116/34 31/70/34
f 27/117/34 29/118/34 31/70/34
f 31/70/34 33/119/34 35/120/34
f 35/120/34 37/121/34 31/70/34
f 39/122/34 41/123/34 43/124/34
f 43/124/34 45/125/34 47/71/34
f 47/71/34 49/126/34 51/127/34
f 51/127/34 53/128/34 55/129/34
f 55/129/34 57/130/34 63/104/34
f 59/131/34 61/132/34 63/104/34
f 63/104/34 3/106/34 15/72/34
f 7/108/34 13/111/34 15/72/34
f 15/72/34 21/114/34 23/115/34
f 25/116/34 27/117/34 31/70/34
f 31/70/34 37/121/34 39/122/34
f 39/122/34 43/124/34 47/71/34
f 47/71/34 51/127/34 63/104/34
f 57/130/34 59/131/34 63/104/34
f 3/106/34 7/108/34 15/72/34
f 15/72/34 23/115/34 31/70/34
f 31/70/34 39/122/34 47/71/34
f 51/127/34 55/129/34 63/104/34
f 63/104/34 15/72/34 47/71/34
